<svg width="34" height="54" viewBox="0 0 34 54" fill="none" xmlns="http://www.w3.org/2000/svg">
<path d="M28.7073 0.23999H5.29244C2.53283 0.23999 0.274963 2.49786 0.274963 5.25747V48.7423C0.274963 51.5019 2.53283 53.7598 5.29244 53.7598H28.7073C31.467 53.7598 33.7248 51.5019 33.7248 48.7423V5.25747C33.7248 2.49786 31.467 0.23999 28.7073 0.23999ZM10.3099 2.74873H23.6899V4.42122H10.3099V2.74873ZM16.9999 50.4148C16.1127 50.4148 15.2619 50.0624 14.6346 49.4351C14.0073 48.8077 13.6549 47.9569 13.6549 47.0698C13.6549 46.1826 14.0073 45.3318 14.6346 44.7045C15.2619 44.0772 16.1127 43.7248 16.9999 43.7248C17.887 43.7248 18.7378 44.0772 19.3652 44.7045C19.9925 45.3318 20.3449 46.1826 20.3449 47.0698C20.3449 47.9569 19.9925 48.8077 19.3652 49.4351C18.7378 50.0624 17.887 50.4148 16.9999 50.4148ZM30.3798 40.3798H3.61995V6.92996H30.3798V40.3798Z" fill="#006B6A"/>
</svg>
